<svg version="1" xmlns="http://www.w3.org/2000/svg" width="682.667" height="682.667" viewBox="0 0 512.000000 512.000000"><path d="M237.7.7l-5.8.4.6 4.2c1.4 10.5 7.5 86.6 10 124.7 3.2 48.6 3.7 135.5.9 167-.3 4.1-.4 7.3-.1 7 1.1-1.1 155.9-260.2 155.5-260.4-4.6-3.3-17.9-11-26.8-15.5C330.6 7 285.1-2.2 237.7.7zM136.5 29.8c-39.6 21.1-75.4 54.8-98.8 92.8-49.9 81.4-49.9 185.8.1 266.8 3.1 5 6.8 10.7 8.2 12.7l2.6 3.7 39.2-153.7c21.6-84.5 43.5-170.1 48.6-190.4 5.2-20.2 9.3-36.7 9.3-36.7-.1 0-4.2 2.2-9.2 4.8zM429.4 299.8c-24.8 97.2-45 176.9-44.8 177.1.2.2 3.4-1.6 7.1-4 38.5-24.6 70.5-59.2 90.9-98.4 38.3-73.3 38.9-160.7 1.6-234-2.8-5.5-6.1-11.7-7.4-13.7l-2.3-3.7-45.1 176.7z"/><path d="M141.8 300.1l-40.7 159.4 2.2 1.7c6.3 5.1 23.6 15.9 34.2 21.4 41.7 21.8 89.4 31.9 134.8 28.6 13.7-1 37.3-4.3 38.2-5.4.4-.5 90.5-354.2 90.2-354.4-.1-.1-11.9 18.5-26.1 41.4C302.7 308.2 260.5 375.9 257.7 380c-5.3 7.7-15.1 16.9-21.2 19.6-5.4 2.5-6.2 2.6-20.3 2.2-12.7-.3-15.3-.7-18.9-2.6-5.3-2.8-7.9-6.5-9.9-14.2-1.4-5.4-1.4-8.6-.3-26.8 1.5-25.5 1.5-99.7 0-134.7-1.1-25.1-4-78.6-4.4-81.4-.1-.7-18.5 70.4-40.9 158z"/></svg>