<?xml version="1.0" standalone="no"?>
<!DOCTYPE svg PUBLIC "-//W3C//DTD SVG 20010904//EN"
 "http://www.w3.org/TR/2001/REC-SVG-20010904/DTD/svg10.dtd">
<svg version="1.0" xmlns="http://www.w3.org/2000/svg"
 width="490.000000pt" height="490.000000pt" viewBox="0 0 490.000000 490.000000"
 preserveAspectRatio="xMidYMid meet">
<metadata>
Created by potrace 1.11, written by Peter Selinger 2001-2013
</metadata>
<g transform="translate(0.000000,490.000000) scale(0.100000,-0.100000)"
fill="#000000" stroke="none">
<path d="M2153 4884 c-418 -50 -841 -222 -1183 -480 -150 -113 -150 -120 -2
-59 147 60 376 137 472 160 83 19 163 19 199 1 63 -33 139 -149 201 -305 65
-164 76 -225 61 -329 -25 -177 -95 -352 -372 -931 -110 -228 -197 -416 -196
-417 2 -2 72 82 157 187 168 209 538 644 711 834 267 296 672 621 945 758 104
52 141 60 201 42 106 -32 213 -201 213 -338 0 -85 -102 -331 -257 -622 -122
-228 -483 -855 -711 -1235 -19 -33 76 65 457 465 445 467 898 917 1021 1014
58 45 160 127 227 183 l122 101 -47 60 c-74 95 -247 272 -352 359 -287 241
-671 430 -1041 512 -245 55 -575 71 -826 40z"/>
<path d="M1335 3865 c-71 -20 -270 -120 -480 -240 -262 -150 -717 -421 -736
-437 -18 -16 -72 -230 -95 -373 -22 -140 -29 -453 -15 -601 22 -216 77 -448
151 -642 l32 -82 62 82 c460 613 904 1293 1100 1688 110 222 156 353 163 466
5 78 5 82 -23 113 -35 39 -85 47 -159 26z"/>
<path d="M2734 3611 c-390 -214 -1289 -1326 -2052 -2538 l-121 -192 111 -116
c213 -223 428 -381 703 -516 831 -407 1813 -312 2557 249 103 77 305 265 360
335 30 37 26 35 -63 -31 -234 -173 -469 -310 -603 -351 -274 -84 -530 70 -607
366 -38 147 -23 393 36 597 113 390 375 787 995 1507 202 234 231 288 164 305
-76 19 -509 -358 -993 -866 -409 -430 -778 -864 -1276 -1505 -122 -157 -217
-260 -257 -281 -67 -35 -116 -9 -167 85 -53 101 -83 235 -84 381 -2 211 4 222
573 1005 386 531 755 1128 831 1347 31 90 40 213 17 236 -20 20 -70 13 -124
-17z"/>
<path d="M4689 3174 c-597 -702 -1029 -1490 -1056 -1931 -14 -229 79 -316 289
-272 75 16 145 54 383 207 382 245 369 235 406 322 219 522 249 1133 82 1674
l-28 89 -76 -89z"/>
</g>
</svg>
