<svg id="Light" xmlns="http://www.w3.org/2000/svg" viewBox="0 0 490 490"><title>Logo-light</title><path d="M263.24,282.16c22.23-37.45,40.47-68.66,54.24-92.8,14.19-24.89,25.14-45.6,32.54-61.56,7.52-16.23,11.18-26.94,11.18-32.73a41.58,41.58,0,0,0-8.15-24.46C347.59,63,341.3,59.12,334.33,59.12c-5,0-14.26,4.2-28.24,12.82a377.49,377.49,0,0,0-44.45,32.86,389.23,389.23,0,0,0-42.83,42.1c-9.42,10.79-18.74,21.54-27.68,31.93-9.09,10.55-18.31,21.5-27.4,32.53-8.25,10-17,21-26.17,32.68,12-25.09,22.22-46.34,30.37-63.2,8.66-17.9,15.61-33.84,20.67-47.36S196.25,108,196.25,98c0-2.81-1.68-9-5.15-18.77a116.4,116.4,0,0,0-12.51-25.6c-5-7.43-10.32-11.2-15.94-11.2-11,0-30.77,5.68-58.93,16.88-4.37,1.74-8.9,3.63-13.5,5.64A244.64,244.64,0,0,1,361.58,32.39,246.78,246.78,0,0,1,446,103.83l-1.11,1c-10.74,9.38-21.62,18.29-32.35,26.49-7.79,6-17.66,14.92-29.34,26.41s-29.74,29.93-53.63,54.79C306.77,236.23,284.48,259.65,263.24,282.16Z" transform="translate(-5 -5)"/><path d="M250,6A241.39,241.39,0,0,1,361.35,32.83a246.37,246.37,0,0,1,84,70.93h0l-.75.66c-10.73,9.37-21.6,18.28-32.33,26.47-7.8,6-17.69,14.95-29.38,26.45s-29.75,29.94-53.64,54.8C307.52,234.74,286.27,257,266,278.54c21.2-35.74,38.65-65.63,51.94-88.93,14.2-24.9,25.16-45.63,32.56-61.6,7.55-16.3,11.23-27.07,11.23-32.94a42,42,0,0,0-8.25-24.75c-5.55-7.76-12-11.7-19.12-11.7-5.12,0-14.44,4.22-28.51,12.9a377,377,0,0,0-44.5,32.9,389.26,389.26,0,0,0-42.88,42.15c-9.43,10.8-18.75,21.55-27.69,31.93C181.66,189.06,172.44,200,163.34,211c-7.4,9-15.23,18.73-23.35,29.08,11.15-23.29,20.69-43.13,28.39-59.06,8.67-17.92,15.63-33.87,20.69-47.4S196.75,108,196.75,98c0-2.86-1.69-9.06-5.18-18.93A116.51,116.51,0,0,0,179,53.36c-5.06-7.59-10.57-11.43-16.36-11.43-11,0-30.9,5.69-59.11,16.91-3.4,1.36-6.9,2.8-10.46,4.32A243.67,243.67,0,0,1,250,6m0-1A244.06,244.06,0,0,0,87.44,66.72q8.43-3.75,16.47-6.95,42.33-16.85,58.74-16.84,8.19,0,15.53,11A115,115,0,0,1,190.63,79.4q5.12,14.5,5.12,18.6,0,14.94-7.61,35.31t-20.66,47.31q-13,27-32.37,67.38,15.22-19.62,29-36.32t27.4-32.52q13.62-15.82,27.68-31.94a387.23,387.23,0,0,1,42.77-42q23.75-20.06,44.39-32.81t28-12.75q10.25,0,18.31,11.28a40.86,40.86,0,0,1,8.06,24.17q0,8.5-11.14,32.52T317,189.12q-21.39,37.5-56.54,96.68,33.4-35.44,69.43-73t53.62-54.79q17.58-17.28,29.29-26.36,16.11-12.31,32.38-26.52l1.46-1.28A244.61,244.61,0,0,0,250,5Z" transform="translate(-5 -5)"/><path d="M24.66,345a245.4,245.4,0,0,1-7.75-169c11.35-6.38,24.94-14.34,40.38-23.67,22.82-13.79,42-24.83,57-32.8s25.56-12,31.7-12c7.35,0,10.93,4,10.93,12.09,0,7.91-2.95,18.93-8.76,32.77s-15.27,31.8-28.09,53.26-27.68,44.43-44.22,68.38C62,294,44.81,317.91,24.66,345Z" transform="translate(-5 -5)"/><path d="M146,108.09c7,0,10.43,3.79,10.43,11.59s-2.94,18.8-8.72,32.58S132.41,184,119.6,205.45,91.94,249.87,75.4,273.8C61.73,293.58,44.71,317.2,24.79,344a244.83,244.83,0,0,1-7.46-167.68c11.32-6.36,24.85-14.3,40.22-23.58C80.36,139,99.52,128,114.49,120s25.4-11.89,31.46-11.89m0-1q-9.37,0-31.93,12T57,151.91Q33.6,166.07,16.49,175.67A245.86,245.86,0,0,0,24.55,346q30.71-41.31,51.67-71.66,24.9-36,44.24-68.41t28.13-53.32q8.79-20.94,8.79-33,0-12.59-11.43-12.59Z" transform="translate(-5 -5)"/><path d="M250,494.5A243.93,243.93,0,0,1,61.91,406.22c3.76-5.83,8.32-13.13,13.57-21.72,32.64-51.1,64.42-96.73,94.45-135.6s55.58-68.56,76-88.28S280.2,131,287.45,131c3.22,0,4.78,2.81,4.78,8.59,0,6.92-2.2,15-6.55,24.1s-11.2,21.51-20.34,36.87c-13,22.16-25.14,41.27-36,56.8s-24.89,35-41.45,57.56-27.59,38.61-32.55,47.37-7.54,17.19-7.54,24.85a103.53,103.53,0,0,0,6,35.48c4.06,11.2,9,16.88,14.68,16.88,3.24,0,7.1-2.12,11.48-6.29s11.76-13.05,22.17-26.57,16.65-21.54,18.59-23.86c34.59-43.73,67.25-82,97.1-113.65s54.62-56,73.64-72.33,30.38-24.49,33.95-24.49a4,4,0,0,1,2.87,1.32,4.28,4.28,0,0,1,1.32,3.16c0,1.52-4.25,8.19-24.49,31.31-22,25.26-40.5,48.39-55.1,68.74s-26,40.35-33.9,59.43a151.89,151.89,0,0,0-11.9,58.2c0,17,4.67,31.15,13.89,41.93S339.42,452.7,354,452.7c6.09,0,13.5-1.83,22-5.46s19.32-9.74,32.16-18.2c8.87-5.85,17.92-12.32,26.94-19.28A243.88,243.88,0,0,1,250,494.5Z" transform="translate(-5 -5)"/><path d="M287.45,131.52c1.06,0,4.28,0,4.28,8.09,0,6.84-2.19,14.88-6.5,23.88S274,185,264.91,200.33c-13,22.15-25.13,41.25-36,56.77s-24.89,35-41.44,57.55-27.61,38.64-32.59,47.41-7.6,17.35-7.6,25.1a104,104,0,0,0,6.07,35.65c4.2,11.58,9.15,17.21,15.15,17.21,3.42,0,7.29-2.1,11.82-6.43,4.32-4.13,11.8-13.09,22.22-26.63s16.65-21.53,18.6-23.86c34.57-43.71,67.23-81.93,97.06-113.61s54.6-56,73.6-72.29c23.5-20.14,31.26-24.37,33.63-24.37A3.54,3.54,0,0,1,428,174a3.87,3.87,0,0,1,1.17,2.81c0,.95-2.37,5.86-24.37,31s-40.51,48.41-55.13,68.77S323.58,317,315.68,336.1a152.46,152.46,0,0,0-11.94,58.39c0,17.16,4.71,31.38,14,42.25S339.27,453.2,354,453.2c6.15,0,13.63-1.85,22.21-5.5s19.38-9.76,32.24-18.25c7.56-5,15.25-10.42,22.95-16.22a244,244,0,0,1-368.83-7.05c3.72-5.77,8.21-13,13.36-21.41,32.64-51.09,64.41-96.7,94.43-135.57s55.56-68.52,75.93-88.22c20.23-19.55,34.09-29.46,41.2-29.46m0-1q-11.13,0-41.89,29.74t-76,88.33Q124.28,307.2,75.05,384.23q-8,13.17-13.75,22a245,245,0,0,0,377.28.14q-15.4,12.12-30.72,22.22-19.33,12.75-32.08,18.16T354,452.2q-21.69,0-35.45-16.11t-13.77-41.6a150.72,150.72,0,0,1,11.86-58q11.86-28.71,33.84-59.33t55.08-68.7q24.62-28.12,24.61-31.64a4.79,4.79,0,0,0-1.47-3.51,4.48,4.48,0,0,0-3.22-1.47q-5.56,0-34.28,24.61T317.48,268.8q-45,47.76-97.12,113.68-2.93,3.51-18.6,23.87t-22.12,26.52Q173.19,439,168.51,439q-8.2,0-14.21-16.55a102.58,102.58,0,0,1-6-35.31q0-11.42,7.47-24.61t32.52-47.31q25-34.12,41.46-57.57t36-56.83q13.77-23.15,20.36-36.92t6.6-24.31q0-9.09-5.28-9.09Z" transform="translate(-5 -5)"/><path d="M387.65,398.68c-6.65,0-11.6-1.91-14.7-5.68s-4.72-10-4.72-18.43c0-13.74,5.06-32.75,15-56.5s24.91-50.47,44.33-79.31A683.85,683.85,0,0,1,481,169.86a245.09,245.09,0,0,1-9.13,182.88c-2,1.43-4.16,2.94-6.47,4.57-7.89,5.55-16,10.82-24.14,15.65-5.74,3.83-12,8-18.62,12.32a122.6,122.6,0,0,1-17.8,9.92A42.75,42.75,0,0,1,387.65,398.68Z" transform="translate(-5 -5)"/><path d="M480.85,170.83a244.68,244.68,0,0,1-9.33,181.58l-6.37,4.49c-7.88,5.55-16,10.81-24.11,15.64h0c-5.71,3.81-12,7.95-18.6,12.3a121,121,0,0,1-17.72,9.88,42.27,42.27,0,0,1-17,3.44c-6.5,0-11.31-1.85-14.32-5.5s-4.6-9.8-4.6-18.11c0-13.68,5-32.62,15-56.31S408.63,267.85,428,239a681.94,681.94,0,0,1,52.82-68.21m.38-2a682.8,682.8,0,0,0-54,69.6q-29.29,43.52-44.39,79.4t-15.08,56.69q0,12.89,4.83,18.75t15.09,5.86a43.16,43.16,0,0,0,17.43-3.52,121.7,121.7,0,0,0,17.87-10q9.81-6.43,18.6-12.31,12.31-7.32,24.17-15.67c2.36-1.66,4.55-3.2,6.59-4.65a245.61,245.61,0,0,0,8.92-184.19Z" transform="translate(-5 -5)"/></svg>